<svg id="Layer_1" data-name="Layer 1" xmlns="http://www.w3.org/2000/svg" viewBox="0 0 600 600"><defs><style>.cls-1{fill:#a2d5e0;}.cls-2{fill:none;stroke:#1d1d1b;stroke-miterlimit:10;stroke-width:15px;}</style></defs><title>Symbols-tzolkine-normal</title><rect class="cls-1" x="46.61" y="46.61" width="506.79" height="506.79" rx="97.51"/><rect class="cls-2" x="47.18" y="48.06" width="505.63" height="505.63" rx="97.51"/><path class="cls-2" d="M107.06,545.19a95.67,95.67,0,1,1,170.39,6.73"/><path class="cls-2" d="M332.75,50.91S343.48,172,201,172h-52.1"/><path class="cls-2" d="M179.52,49.37s18.39,55.17,87.34,55.17,65.89-58.23,65.89-58.23"/><path class="cls-2" d="M332.75,50.91c0,131.78,125.66,119.52,125.66,119.52"/><path class="cls-2" d="M467.6,52.44s9.2,56.7-49,56.7c-90.41,0-85.82-56.7-85.82-56.7"/><path class="cls-2" d="M168.79,175s-16.86,125.65,78.15,125.65c87.35,0,93.48-3.06,114.93-3.06,87.35,0,65.89-128.72,65.89-125.66"/><path class="cls-2" d="M358.81,136.72l-72,118s59.77,30.65,134.85,1.53"/><path class="cls-2" d="M345,162.77c47.51,10.73,19.92,105.73-58.23,91.94"/><path class="cls-2" d="M430.83,427.87S552.65,383.64,552.65,284"/><path class="cls-2" d="M430.83,510.62s121.82-21,121.82-120.6"/><path class="cls-2" d="M150.73,553a64.49,64.49,0,1,1,107.73-47.84c0,17.81-8.08,37.77-23,48"/></svg>