<svg id="Layer_1" data-name="Layer 1" xmlns="http://www.w3.org/2000/svg" viewBox="0 0 600 600"><defs><style>.cls-1{fill:#fff;}.cls-2{fill:none;stroke:#1d1d1b;stroke-miterlimit:10;stroke-width:15px;}.cls-3{fill:#1d1d1b;}</style></defs><title>Symbols-tzolkine-normal</title><rect class="cls-1" x="46.09" y="46.61" width="506.79" height="506.79" rx="97.51"/><path class="cls-2" d="M185.92,290.19a33.05,33.05,0,1,1-66.1,0"/><circle class="cls-3" cx="118.06" cy="350.7" r="12.08"/><circle class="cls-3" cx="98" cy="386.19" r="12.08"/><circle class="cls-3" cx="187.83" cy="229.46" r="12.08"/><path class="cls-2" d="M413.05,290.19a33,33,0,1,0,66.1,0"/><circle class="cls-3" cx="480.91" cy="350.7" r="12.08"/><circle class="cls-3" cx="500.97" cy="386.19" r="12.08"/><circle class="cls-3" cx="409.18" cy="225.25" r="12.08"/><path class="cls-2" d="M541.68,502.78c-110-20-188.61-119.14-200.37-240.22"/><path class="cls-2" d="M61.7,501C171.34,481.08,246,384.07,257.62,263.84"/><rect class="cls-2" x="49.12" y="47.18" width="505.63" height="505.63" rx="97.51"/><path class="cls-2" d="M436.93,47.63a134.47,134.47,0,0,1-268.93,0"/><path class="cls-2" d="M404.48,47.63a102,102,0,0,1-204,0"/><path class="cls-3" d="M314.05,225a7.06,7.06,0,0,1-.58-14.09l1.11-.1a7.05,7.05,0,0,1,1.29,14.05l-1.23.11Zm-35.19-.6a6.1,6.1,0,0,1-.84,0l-1.22-.14a7.06,7.06,0,0,1,1.77-14l1.12.13a7.05,7.05,0,0,1-.83,14.06Zm70.91-6.26a7.06,7.06,0,0,1-2-13.81l1.07-.33A7.06,7.06,0,1,1,353,217.48l-1.17.36A7.05,7.05,0,0,1,349.77,218.15Zm-106.38-1.82a7,7,0,0,1-2.29-.38l-1.16-.4a7.06,7.06,0,1,1,4.67-13.32l1.07.37a7.06,7.06,0,0,1-2.29,13.73ZM383.25,203.9a7.06,7.06,0,0,1-3.44-13.22l1-.55a7.06,7.06,0,0,1,6.95,12.28l-1.06.6A7.11,7.11,0,0,1,383.25,203.9Zm-172.84-3a7.1,7.1,0,0,1-3.64-1l-1.05-.64a7.06,7.06,0,0,1,7.38-12l1,.58a7.06,7.06,0,0,1-3.65,13.1Zm202.56-18a7.05,7.05,0,0,1-4.65-12.36l.84-.75a7.06,7.06,0,1,1,9.38,10.55l-.92.81A7.06,7.06,0,0,1,413,182.94Zm-231.56-4a7,7,0,0,1-4.82-1.91l-.9-.85A7.05,7.05,0,1,1,185.42,166l.82.76A7.06,7.06,0,0,1,181.41,179Zm256.26-22.74A7.06,7.06,0,0,1,432,145c.23-.3.45-.6.67-.91a7.06,7.06,0,0,1,11.37,8.37l-.74,1A7,7,0,0,1,437.67,156.24Zm-280-4.79a7.06,7.06,0,0,1-5.8-3l-.69-1a7.06,7.06,0,1,1,11.64-8l.64.93a7.05,7.05,0,0,1-5.79,11.08ZM456.24,125a7.07,7.07,0,0,1-6.41-10c.16-.35.32-.69.47-1a7.06,7.06,0,1,1,12.87,5.79l-.51,1.12A7.07,7.07,0,0,1,456.24,125Zm-316.09-5.4a7.06,7.06,0,0,1-6.51-4.33l-.47-1.13a7.06,7.06,0,0,1,13.06-5.36c.14.35.28.7.43,1.05a7,7,0,0,1-6.51,9.77Zm327.67-29.1a7.21,7.21,0,0,1-1.52-.16,7.06,7.06,0,0,1-5.38-8.41l.24-1.11a7.06,7.06,0,0,1,13.8,3c-.08.39-.17.79-.25,1.19A7.07,7.07,0,0,1,467.82,90.46Zm-338-5.76a7.05,7.05,0,0,1-6.93-5.77c-.08-.4-.15-.8-.22-1.21a7.05,7.05,0,1,1,13.89-2.46c.07.37.13.74.2,1.11a7.05,7.05,0,0,1-5.65,8.22A7.18,7.18,0,0,1,129.77,84.7Z"/><circle class="cls-3" cx="300.42" cy="430.8" r="12.08"/><circle class="cls-3" cx="300.42" cy="383.9" r="12.08"/><circle class="cls-3" cx="300.42" cy="336.99" r="12.08"/><circle class="cls-3" cx="300.42" cy="290.09" r="12.08"/><circle class="cls-3" cx="91.07" cy="157.14" r="12.08"/><circle class="cls-3" cx="502.87" cy="157.14" r="12.08"/><circle class="cls-3" cx="300.42" cy="524.64" r="12.08"/><path class="cls-2" d="M351.88,464.33c-10.62,12.53-29.87,20.9-51.86,20.9-21.44,0-40.28-8-51-20"/></svg>