<svg id="Layer_1" data-name="Layer 1" xmlns="http://www.w3.org/2000/svg" viewBox="0 0 600 600"><defs><style>.cls-1{fill:#fff;}.cls-2{fill:none;stroke:#1d1d1b;stroke-miterlimit:10;stroke-width:15px;}</style></defs><title>Symbols-tzolkine-normal</title><rect class="cls-1" x="41.44" y="46.61" width="506.79" height="506.79" rx="97.51"/><rect class="cls-2" x="42.01" y="47.18" width="505.63" height="505.63" rx="97.51"/><line class="cls-2" x1="234.84" y1="300.96" x2="353.1" y2="300.96"/><polyline class="cls-2" points="235.7 305.82 235.7 241.63 171.2 241.63 171.2 177.59 106.7 177.59 106.68 113.55 47.18 113.55"/><polyline class="cls-2" points="235.7 296.69 235.7 360.88 171.2 360.88 171.2 424.93 106.7 424.93 106.68 488.97 49.14 488.97"/><polyline class="cls-2" points="353.96 305.82 353.96 241.63 418.46 241.63 418.46 177.59 482.96 177.59 482.98 113.55 541.73 113.55"/><polyline class="cls-2" points="353.96 296.69 353.96 360.88 418.46 360.88 418.46 424.93 482.96 424.93 482.98 488.97 538.8 488.97"/></svg>