<svg id="Layer_1" data-name="Layer 1" xmlns="http://www.w3.org/2000/svg" viewBox="0 0 600 600"><defs><style>.cls-1{fill:#ef7b79;}.cls-2,.cls-3,.cls-4{fill:none;stroke:#1d1d1b;}.cls-2,.cls-4{stroke-miterlimit:10;}.cls-2,.cls-3{stroke-width:15px;}.cls-3,.cls-4{stroke-linecap:round;}.cls-3{stroke-linejoin:bevel;}.cls-4{stroke-width:24px;stroke-dasharray:2 60;}</style></defs><title>Symbols-tzolkine-normal</title><rect class="cls-1" x="46.61" y="46.61" width="506.79" height="506.79" rx="97.51"/><rect class="cls-2" x="47.18" y="52.24" width="505.63" height="505.63" rx="97.51"/><path class="cls-3" d="M295.42,268.54c-24.14,74.7,22.15,68.13,23.18,121,.9,46.22-38.74,50.44-38.74,114.06a94.52,94.52,0,0,0,14.68,50.19"/><path class="cls-3" d="M343.35,325c17.21,20.45,32.64,41.11,31.37,70-2.37,54-44.29,47.15-44.29,110.78,0,21.33,10,38,19.91,49.35"/><path class="cls-3" d="M236.82,343.25c12.91,10.76,25.7,26.75,24.75,48.43-2.37,54-39.72,55.95-39.72,114.76,0,21.34,9.2,37.71,18.39,48.76"/><path class="cls-3" d="M419.8,406.73c2.2,24.93-7.12,42.4-22.75,60.82-23.11,27.26-13.65,66.14,7.72,89.83"/><path class="cls-3" d="M193.81,556.63c-9.92-11-20.22-25.85-20.22-49.05,0-47,46.59-72.62,18.08-107.33"/><path class="cls-3" d="M463,557.38c-14.89-13.37-28.35-28.57-21-46.5,3.6-8.84,10-16.17,15.6-23.89s10.61-16.5,10.69-26"/><path class="cls-3" d="M131.54,453c15.38,14-2.79,33.38-8,47.56-7.64,20.74,2.18,41,15.59,57"/><path class="cls-2" d="M434.94,52.68a134.47,134.47,0,0,1-268.94,0"/><path class="cls-4" d="M476.35,69.66A172.49,172.49,0,1,1,132.48,42.13"/><path class="cls-2" d="M402.49,57.36c0,56.34-45.68,97.34-102,97.34a102,102,0,0,1-102-102"/></svg>