<svg id="Layer_1" data-name="Layer 1" xmlns="http://www.w3.org/2000/svg" viewBox="0 0 600 600"><defs><style>.cls-1{fill:#fff;}.cls-2{fill:none;stroke:#1d1d1b;stroke-miterlimit:10;stroke-width:15px;}</style></defs><title>Symbols-tzolkine-normal</title><rect class="cls-1" x="46.61" y="46.61" width="506.79" height="506.79" rx="97.51"/><rect class="cls-2" x="47.04" y="47.18" width="505.63" height="505.63" rx="97.51"/><circle class="cls-2" cx="210.7" cy="292.1" r="35.5"/><path class="cls-2" d="M465.61,221.38c0,34.25-33.44,62-74.68,62s-74.69-27.77-74.69-62"/><line class="cls-2" x1="465.6" y1="47.27" x2="465.6" y2="224.67"/><line class="cls-2" x1="316.13" y1="47.27" x2="316.13" y2="224.67"/><path class="cls-2" d="M553,286.81c0,34.25-33.44,62-74.69,62s-74.69-27.77-74.69-62"/><line class="cls-2" x1="206.11" y1="256.6" x2="206.11" y2="327.61"/><path class="cls-2" d="M72.79,408.58s-40.67,25.94-12.26,59.08c16.46,19.2,101.78,12.26,198.32,12.26s96.77-53.17,96.77-71.56"/><path class="cls-2" d="M287.86,511c-7,.74-165.5.26-200.74.26v22.9"/><line class="cls-2" x1="108.57" y1="480.38" x2="108.57" y2="514.1"/><line class="cls-2" x1="154.54" y1="480.38" x2="154.54" y2="514.1"/><line class="cls-2" x1="200.51" y1="480.38" x2="200.51" y2="514.1"/><line class="cls-2" x1="246.48" y1="480.38" x2="246.48" y2="514.1"/><path class="cls-2" d="M272.53,481.92s-1.53,39.84,56.7,38.31c1.47,1.27-22.22-19.56-19.48-46.08"/><path class="cls-2" d="M239.1,47.44s-113.68,11.78-113.68,116l1.2,106.17c.14,24.64-12.68,37.61-22.65,48.6-7.68,8.46-21.11,12.71-33.3,28.24-13,16.49-21.65,55,11.75,66.82A38,38,0,0,0,119.34,407"/><path class="cls-2" d="M228.86,261.24c22.36,3.2,40.79-.37,52-1.17,0,0-10.85,32.08-39.45,49.7"/></svg>