<svg id="Layer_1" data-name="Layer 1" xmlns="http://www.w3.org/2000/svg" viewBox="0 0 600 600"><defs><style>.cls-1{fill:#ef7b79;}.cls-2,.cls-3,.cls-4,.cls-5{fill:none;stroke:#1d1d1b;stroke-miterlimit:10;}.cls-2{stroke-width:15px;}.cls-3,.cls-4,.cls-5{stroke-linecap:round;stroke-width:24px;}.cls-3{stroke-dasharray:2 60;}.cls-5{stroke-dasharray:1.8 54.07;}</style></defs><title>Symbols-tzolkine-normal</title><rect class="cls-1" x="46.61" y="46.61" width="506.79" height="506.79" rx="97.51"/><rect class="cls-2" x="47.41" y="48.16" width="505.63" height="505.63" rx="97.51"/><path class="cls-2" d="M552.73,190.62a217.07,217.07,0,0,1-29.3,36.26C463.27,287,380.7,302,339,260.33S312.3,136.07,372.46,75.91a222.36,222.36,0,0,1,23.48-20.42"/><path class="cls-3" d="M538.48,263.23C457.76,333.5,369.82,336,316.13,282.34,263,229.17,270.57,134.45,339.08,54.1"/><path class="cls-2" d="M395.94,55.49q4.55-3.42,9.18-6.52"/><path class="cls-2" d="M322,221.84s0,40.7,35,40.7,35-40.7,35-40.7"/><path class="cls-2" d="M392.06,221.84s0,40.7,35,40.7,35-40.7,35-40.7"/><path class="cls-2" d="M422,281.66a57.13,57.13,0,0,0,5.11-22"/><path class="cls-2" d="M357,259.7a58.13,58.13,0,0,0,2.76,16"/><path class="cls-2" d="M427.08,259.7A57.59,57.59,0,0,0,431.44,280"/><path class="cls-2" d="M356.75,273.81a57.72,57.72,0,0,0,2.18-14.11"/><path class="cls-2" d="M323.68,152.75c1.65,11.44,7.09,34.06,33.36,34.06,35,0,35-40.7,35-40.7"/><path class="cls-2" d="M392.06,146.11s0,40.7,35,40.7,35-40.7,35-40.7"/><path class="cls-2" d="M357,184s0,40.71,35,40.71,35-40.71,35-40.71"/><path class="cls-2" d="M427.08,184s0,40.71,35,40.71,35-40.71,35-40.71"/><path class="cls-2" d="M317.74,224.22a40.09,40.09,0,0,0,6.17.46c35,0,35-40.71,35-40.71"/><path class="cls-2" d="M460.21,221.84s0,26.87,18.79,36.94"/><path class="cls-2" d="M460.21,147.06s0,40.7,35,40.7,35-40.7,35-40.7"/><path class="cls-2" d="M530.26,146.11s0,30.72,23,38.78"/><path class="cls-2" d="M497.13,184s0,35.78,28.85,40.25"/><path class="cls-2" d="M340.8,108.28A33.83,33.83,0,0,0,357,112c35,0,35-40.7,35-40.7"/><path class="cls-2" d="M392.06,71.33s0,40.7,35,40.7,35-40.7,35-40.7"/><path class="cls-2" d="M357,109.19s0,40.71,35,40.71,35-40.71,35-40.71"/><path class="cls-2" d="M427.08,109.19s0,40.71,35,40.71,35-40.71,35-40.71"/><path class="cls-2" d="M323.91,149.9c35,0,35-40.71,35-40.71"/><path class="cls-2" d="M460.21,72.28s0,40.7,35,40.7c22.71,0,30.69-17.1,33.5-29.14"/><path class="cls-2" d="M497.13,109.19s0,40.71,35,40.71c8.75,0,15.32-2.55,20.25-6.36"/><path class="cls-2" d="M375.82,70.06a33.86,33.86,0,0,0,16.24,3.75c21.39,0,29.72-15.18,33-27"/><path class="cls-2" d="M428.93,46C432,57.91,440.21,73.81,462.1,73.81c15.5,0,24.14-8,28.95-16.85"/><path class="cls-2" d="M411.15,537.54c35,0,37.44-41.14,37.44-41.14"/><path class="cls-2" d="M479.73,554a48.45,48.45,0,0,0,3.88-19.75"/><path class="cls-2" d="M393.29,455c4.93,3.83,11.51,6.38,20.28,6.38,25.32,0,32.33-21.27,34.28-33.06"/><path class="cls-2" d="M380.65,499.19c32.92-1.6,32.92-40.65,32.92-40.65"/><path class="cls-2" d="M413.57,458.54s0,40.7,35,40.7,35-40.7,35-40.7"/><path class="cls-2" d="M516.74,496.4s0,14.61,7.53,26.32"/><path class="cls-2" d="M446.7,496.4s0,40.7,35,40.7,35-40.7,35-40.7"/><path class="cls-2" d="M447.24,428c1.65,11.45,8.21,34.35,34.48,34.35,21.83,0,30.06-15.82,33.15-27.74"/><path class="cls-2" d="M483.61,534.26a67.16,67.16,0,0,0,4.16,19.37"/><path class="cls-2" d="M518.59,433.55c3.08,11.93,9.74,28.52,31.63,28.52"/><path class="cls-2" d="M483.61,458.54s0,40.7,35,40.7,33.87-40.62,33.87-40.62"/><path class="cls-2" d="M163,468.85c-8.75,4.14-18,9.9-28.89,19.09-43,36.5-30,56-30,56"/><path class="cls-2" d="M48,447.07s33-46.72,97.56-67.16S279,350.72,303.37,328.82c0,0,7.17,58.39-50.22,99.27-28.7,20.44-43,24.89-60.17,30.18"/><path class="cls-2" d="M266.06,374.07S235,410,185.71,420.79c-52.14,11.46-98.7,22.75-126,84.07"/><path class="cls-2" d="M152.72,432.47s-1.19,79.28,90.64,69.06c0,0-31.73-18.38-43.68-34.48-14.73-19.85-13.05-41.14-6.09-48.21"/><path class="cls-2" d="M49.51,286.76l-.31-41.29s31.8-35.1,96.85-58.91c60-22,108.59-19.41,107.14-19.41-2.33,0-18.27,50.82-84,86C116.49,281.39,49.51,286.76,49.51,286.76Z"/><line class="cls-2" x1="253.19" y1="167.15" x2="46.78" y2="274.41"/><path class="cls-2" d="M469,551.77c-52.28,0-89.32-26.67-89.32-61.9s42.38-63.79,94.65-63.79c32.67,0,61.48,11.16,78.49,28.13"/><path class="cls-4" d="M260.81,137.9l-1-.18"/><path class="cls-5" d="M206.06,132.75c-44.27.14-88.55,12.18-129,47.47"/><path class="cls-4" d="M57.82,199.17l-.67.75"/></svg>