<svg id="Layer_1" data-name="Layer 1" xmlns="http://www.w3.org/2000/svg" viewBox="0 0 600 600"><defs><style>.cls-1{fill:#ffea4e;}.cls-2,.cls-3,.cls-4,.cls-5{fill:none;stroke:#1d1d1b;stroke-miterlimit:10;}.cls-2{stroke-width:15px;}.cls-3,.cls-4,.cls-5{stroke-linecap:round;stroke-width:24px;}.cls-4{stroke-dasharray:1.92 57.52;}.cls-5{stroke-dasharray:1.91 57.4;}</style></defs><title>Symbols-tzolkine-normal</title><rect class="cls-1" x="46.61" y="46.61" width="506.79" height="506.79" rx="97.51"/><rect class="cls-2" x="47.18" y="47.24" width="505.63" height="505.63" rx="97.51"/><path class="cls-2" d="M50.27,479c10.1-10.11,24.76-24.36,34.79-24.36H239.75c18.39,0,33.71-7.66,47.51-18.39"/><path class="cls-2" d="M47.9,380.46c1.9-2.82,12.25-12.78,26.35-10.11,10.54,2,16.25,18.63,35.25,16.86,21.36-2,46-10.73,32.18-42.91"/><path class="cls-2" d="M91.88,252.74c-6.23,1.32-9.09-5-6.52-10.86,42.71-96.57,99.25-100.69,146.28-107.34,13.66-1.93,3.6,58.3-28.51,83C164,247.55,123.18,246.13,91.88,252.74Z"/><line class="cls-2" x1="235.53" y1="140.18" x2="183.78" y2="180.38"/><circle class="cls-2" cx="154.23" cy="201.48" r="36.08"/><path class="cls-2" d="M508.2,65.26c-78,60.12-183.44,226.57-18.67,381.71"/><path class="cls-3" d="M528.55,87.92l-.73.68"/><path class="cls-4" d="M490.53,132.25c-49.7,73.36-72,186.65,31.7,299.68"/><path class="cls-3" d="M542.44,452.41l.72.69"/><path class="cls-3" d="M460.75,53.34,460,54"/><path class="cls-5" d="M420.33,95.34c-48.12,61.1-84.77,154.93-38.78,250.64"/><path class="cls-3" d="M395.52,371c.17.28.35.56.53.84"/><path class="cls-2" d="M335.38,321.32c-26.06-46.49-46.47-167,80.51-274.19"/><path class="cls-2" d="M527.81,366.48c-33.07-38.14-73.24-145.75,23.45-238.66"/></svg>