<svg id="Layer_1" data-name="Layer 1" xmlns="http://www.w3.org/2000/svg" viewBox="0 0 600 600"><defs><style>.cls-1{fill:#a2d5e0;}.cls-2{fill:none;stroke:#1d1d1b;stroke-miterlimit:10;stroke-width:15px;}</style></defs><title>Symbols-tzolkine-normal</title><rect class="cls-1" x="46.61" y="46.61" width="506.79" height="506.79" rx="97.51"/><rect class="cls-2" x="47.22" y="47.18" width="505.63" height="505.63" rx="97.51"/><path class="cls-2" d="M534.93,512.1c-7.72-11.1-23.56-29-56.31-35.91-54.08-11.39-85.81,10.36-85.81,10.36S380.73,414,303.17,415.29H292.32c-77.84.3-89.64,71.26-89.64,71.26s-30.4-21.51-84.53-10.36c-26.41,5.43-42.7,17.22-52.38,27.64"/><path class="cls-2" d="M298.44,47.25S318.91,271,118.15,476.19"/><path class="cls-2" d="M483.49,476.4C282.73,271.22,299.92,48.73,299.92,48.73"/><path class="cls-2" d="M125,176.49a46.62,46.62,0,0,0-25.83,60.67c12,29.85,42.78,36.91,67.22,27.39,37.49-14.6,55.4-57.47,40.37-94.79C188,123.11,132.92,95.18,81.27,124c0,0-20.93,13.35-34.7,30.07"/><path class="cls-2" d="M475,176.49a46.62,46.62,0,0,1,25.83,60.67c-12,29.85-42.78,36.91-67.22,27.39-37.49-14.6-55.4-57.47-40.37-94.79C412,123.11,467.08,95.18,518.73,124c0,0,20.93,13.35,34.7,30.07"/></svg>