<svg id="Layer_1" data-name="Layer 1" xmlns="http://www.w3.org/2000/svg" viewBox="0 0 600 600"><defs><style>.cls-1{fill:#a2d5e0;}.cls-2,.cls-3,.cls-4,.cls-5{fill:none;stroke:#1d1d1b;stroke-miterlimit:10;}.cls-2{stroke-width:15px;}.cls-3,.cls-4,.cls-5{stroke-linecap:round;stroke-width:24px;}.cls-4{stroke-dasharray:1.93 57.99;}.cls-5{stroke-dasharray:1.95 58.59;}</style></defs><title>Symbols-tzolkine-normal</title><rect class="cls-1" x="46.61" y="46.61" width="506.79" height="506.79" rx="97.51"/><rect class="cls-2" x="47.12" y="47.53" width="505.63" height="505.63" rx="97.51"/><path class="cls-2" d="M389.57,48.38v43a57.33,57.33,0,0,1-57.33,57.33h-64.6a57.33,57.33,0,0,1-57.33-57.33V46.78"/><path class="cls-2" d="M356.92,48.24V82.77a36.45,36.45,0,0,1-36.45,36.45H279.41A36.45,36.45,0,0,1,243,82.77V48.1"/><path class="cls-2" d="M46.28,155s115.69-13.8,174.5,98.14c0,0,14.38,33.51-1.54,36.94-15.09,3.25-55.12-60.23-167.59-65.68"/><path class="cls-2" d="M551.14,156.1c-31-.68-118.67,6-166.54,97.07,0,0-14.38,33.51,1.54,36.94,15.09,3.25,55.12-60.23,167.58-65.68"/><path class="cls-2" d="M324.57,553.22S304.05,438.07,382.2,363c50.85-48.85,107.27-76.62,111.87-62.83S348.49,436.54,419,549.93"/><path class="cls-2" d="M283.34,553.22S303.86,438.07,225.7,363c-50.84-48.85-107.26-76.62-111.86-62.83s145.58,136.39,75.09,249.78"/><path class="cls-3" d="M525,92.71,524,93"/><path class="cls-4" d="M469.26,112c-43,19.73-80.73,51.38-101.77,105.81"/><path class="cls-3" d="M358.79,245.4l-.24,1"/><path class="cls-3" d="M78.85,90.59l1,.25"/><path class="cls-5" d="M135.06,110.14C178.5,130.2,217,162.39,238.28,216.79"/><path class="cls-3" d="M247.13,244.69c.09.32.17.65.25,1"/><circle class="cls-2" cx="115.65" cy="199.9" r="32.1"/><circle class="cls-2" cx="493.93" cy="199.9" r="32.1"/></svg>