<svg id="Layer_1" data-name="Layer 1" xmlns="http://www.w3.org/2000/svg" viewBox="0 0 600 600"><defs><style>.cls-1{fill:#fff;}.cls-2{fill:none;stroke:#1d1d1b;stroke-miterlimit:10;stroke-width:15px;}</style></defs><title>Symbols-tzolkine-normal</title><rect class="cls-1" x="46.61" y="48.32" width="506.79" height="506.79" rx="97.51"/><rect class="cls-1" x="46.61" y="48.32" width="506.79" height="506.79" rx="97.51"/><rect class="cls-2" x="47.18" y="49.05" width="505.63" height="505.63" rx="97.51"/><path class="cls-2" d="M83.87,181c14,6.15,79,13.53,108.09-52.56"/><path class="cls-2" d="M516.13,181c-14,6.15-79,13.53-108.09-52.56"/><path class="cls-2" d="M213.07,244.58c5.18,72.29,23.35,242.95,86.35,242.95"/><path class="cls-2" d="M384.26,243c-4.51,69.69-21.76,244.53-86.83,244.53"/><line class="cls-2" x1="297.46" y1="295.23" x2="297.46" y2="443.65"/><path class="cls-2" d="M462.13,184.16c6,17.43,12.16,39.56-15.6,49.46-14.36,5.12-31.08,5.78-46.85,8.26-32.54,5.13-63,18.37-96.34,17.23h-7.51c-33.35,1.14-63.81-12.1-96.35-17.23-15.77-2.48-32.49-3.14-46.84-8.26-27.76-9.9-21.57-32-15.61-49.46"/></svg>