<svg id="Layer_1" data-name="Layer 1" xmlns="http://www.w3.org/2000/svg" viewBox="0 0 600 600"><defs><style>.cls-1{fill:#c8e1b9;}.cls-2,.cls-3{fill:none;stroke:#1d1d1b;stroke-miterlimit:10;}.cls-2{stroke-width:15px;}.cls-3{stroke-linecap:round;stroke-width:24px;stroke-dasharray:2 60;}</style></defs><title>Symbols-tzolkine-normal</title><rect class="cls-1" x="43.32" y="46.61" width="506.79" height="506.79" rx="97.51"/><rect class="cls-2" x="43.9" y="46.33" width="505.63" height="505.63" rx="97.51"/><path class="cls-2" d="M394.12,489.73H432.5a53,53,0,0,0,53-53V167.39a53,53,0,0,0-53-53H179.59a53,53,0,0,0-53,53v60.39l-.09.61a34.22,34.22,0,0,1-34.23,34.23"/><path class="cls-3" d="M49.83,416.75A95.7,95.7,0,0,1,171.9,552.28"/><path class="cls-2" d="M44.12,453.71a64.49,64.49,0,0,1,81.47,100"/><path class="cls-2" d="M136.81,469.69s9,30.65-60,58.23"/><circle class="cls-2" cx="203.47" cy="140.81" r="25.28"/><circle class="cls-2" cx="254.04" cy="140.81" r="25.28"/><circle class="cls-2" cx="304.61" cy="140.81" r="25.28"/><circle class="cls-2" cx="355.17" cy="140.81" r="25.28"/><circle class="cls-2" cx="405.74" cy="140.81" r="25.28"/><circle class="cls-2" cx="228.75" cy="186.78" r="25.28"/><circle class="cls-2" cx="279.32" cy="186.78" r="25.28"/><circle class="cls-2" cx="329.89" cy="186.78" r="25.28"/><circle class="cls-2" cx="380.46" cy="186.78" r="25.28"/><circle class="cls-2" cx="255.19" cy="231.04" r="25.28"/><circle class="cls-2" cx="305.75" cy="231.04" r="25.28"/><circle class="cls-2" cx="356.32" cy="231.04" r="25.28"/><circle class="cls-2" cx="281.62" cy="275.89" r="25.28"/><circle class="cls-2" cx="332.19" cy="275.89" r="25.28"/><circle class="cls-2" cx="308.05" cy="321.86" r="25.28"/><path class="cls-2" d="M388.74,396.1c-13.05,3.3-19.68,20.41-13.68,32.45s21.82,17.41,34.6,13.19S431.61,425.21,434,412a32.79,32.79,0,0,0,0-12.83c-2.19-10.14-10.21-17.94-18.45-24.25-1.91-1.46-3.93-3-5-5.11-2.36-4.71.65-10.35,4.29-14.15s8.19-7.17,9.74-12.2c2.19-7.08-2.33-14.24-5-21.16s-1.78-17.11,5.43-18.8"/></svg>