<svg id="Layer_1" data-name="Layer 1" xmlns="http://www.w3.org/2000/svg" viewBox="0 0 600 600"><defs><style>.cls-1{fill:#c8e1b9;}.cls-2,.cls-3{fill:none;stroke:#1d1d1b;stroke-miterlimit:10;}.cls-2{stroke-width:15px;}.cls-3{stroke-linecap:round;stroke-width:24px;stroke-dasharray:2 60;}</style></defs><title>Symbols-tzolkine-normal</title><rect class="cls-1" x="46.61" y="46.61" width="506.79" height="506.79" rx="97.51"/><rect class="cls-2" x="47.18" y="47.18" width="505.63" height="505.63" rx="97.51"/><path class="cls-2" d="M550.77,129H172.91a53,53,0,0,0-53,53"/><circle class="cls-2" cx="433.16" cy="252.35" r="63.97"/><path class="cls-2" d="M198.77,251.11c34.13,43.48-65,79.82-79.89,16.95-9.29-39.09,34.29-72.44,69-76.34,22.9-2.58,47.49-3.89,67.52,7.5,20.61,11.72,32.59,36,32,59.69-.54,21.55-8.57,39.39-25.15,53.16-12.31,10.22-30.08,17.61-44.37,24.72C206.64,342.38,183.7,360,202,373.41c7.68,5.62,18.31,3,27.61,1a150.22,150.22,0,0,1,28.43-3.32c4.22-.09,9.07.31,11.56,3.72,2.34,3.22,1.39,8-1.12,11.07s-6.24,4.91-9.85,6.61c-24.84,11.63-50.7,21.77-72.73,38.1-5.34,4-10.51,8.36-14,14a16.9,16.9,0,0,0-2.89,8.85c.07,7.68,8,13.38,15.65,13.93s15-2.62,22.14-5.53c21.67-8.86,51.3-22.6,75.11-22,37.33.88-17.28,36.81-22.64,48.11-6.59,13.91,6.85,16.46,15.5,20,11.82,4.88,13.43,3.86,11.43,19.5-1.17,9.13,11.5,22.3,20.43,24.52"/><line class="cls-3" x1="335.88" y1="483.19" x2="462.4" y2="339.78"/></svg>