<svg id="Layer_1" data-name="Layer 1" xmlns="http://www.w3.org/2000/svg" viewBox="0 0 600 600"><defs><style>.cls-1{fill:#c8e1b9;}.cls-2{fill:none;stroke:#1d1d1b;stroke-miterlimit:10;stroke-width:15px;}</style></defs><title>Symbols-tzolkine-normal</title><rect class="cls-1" x="46.61" y="46.61" width="506.79" height="506.79" rx="97.51"/><rect class="cls-2" x="47.18" y="47.35" width="505.63" height="505.63" rx="97.51"/><circle class="cls-2" cx="296.65" cy="199.15" r="16.47"/><line class="cls-2" x1="300" y1="50.08" x2="300" y2="96.05"/><line class="cls-2" x1="250.45" y1="96.05" x2="250.45" y2="47.01"/><line class="cls-2" x1="349.64" y1="47.41" x2="349.64" y2="100.97"/><line class="cls-2" x1="546.1" y1="244.66" x2="496.48" y2="244.66"/><line class="cls-2" x1="496.48" y1="195.11" x2="549.4" y2="195.11"/><line class="cls-2" x1="548.98" y1="294.3" x2="491.16" y2="294.3"/><line class="cls-2" x1="103.02" y1="244.66" x2="53.4" y2="244.66"/><line class="cls-2" x1="53.4" y1="195.11" x2="106.33" y2="195.11"/><line class="cls-2" x1="105.9" y1="294.3" x2="48.08" y2="294.3"/><path class="cls-2" d="M48.83,491.3a62.06,62.06,0,0,0,62.06-62.06V410.85l-.57-25.26V150.45s77.18-54.4,185.57-54.4,193.79,54.4,193.79,54.4V386.23l-.15,24V428.6a62.06,62.06,0,0,0,62.06,62.07"/><path class="cls-2" d="M305.69,422.45S318,552.7,402.23,552.7"/><path class="cls-2" d="M305.69,422.45S293.44,552.7,209.15,552.7"/><path class="cls-2" d="M308.47,210.18c-11,12.28-27.31,20.66-43.71,18.94S233,213.78,232.45,197.3c-.26-7.34,2.25-14.6,6.17-20.82,13.16-20.88,40.15-28.81,64.83-28.52,16.95.2,34.55,3.8,47.85,14.32s21.11,29.12,15.35,45.07c-5.1,14.13-22.35,22.86-33.12,33.33s-19.22,27.4-11,40c1.88,2.89,4.52,5.31,5.81,8.5,3.92,9.67-6,18.9-14.48,25-6.12,4.4-14.15,11.77-13.79,20.08.58,13.4,16.36,10.31,23.22,18.1,2.6,2.95,3.82,7.49,1.83,10.88a16.67,16.67,0,0,1-3.62,3.79,48.16,48.16,0,0,0-16.15,34.6"/></svg>