<svg id="Layer_1" data-name="Layer 1" xmlns="http://www.w3.org/2000/svg" viewBox="0 0 600 600"><defs><style>.cls-1{fill:#fff;}.cls-2{fill:#c8e1b9;}.cls-3{fill:none;stroke:#1d1d1b;stroke-miterlimit:10;stroke-width:15px;}.cls-4{fill:#1d1d1b;}</style></defs><title>Symbols-tzolkine-normal</title><rect class="cls-1" x="46.61" y="46.61" width="506.79" height="506.79" rx="97.51"/><rect class="cls-2" x="47.18" y="47.18" width="505.63" height="505.63" rx="97.51"/><rect class="cls-3" x="47.18" y="47.18" width="505.63" height="505.63" rx="97.51"/><circle class="cls-3" cx="300" cy="396.97" r="33.05"/><circle class="cls-4" cx="300" cy="460.7" r="12.08"/><circle class="cls-4" cx="300" cy="497.73" r="12.08"/><path class="cls-3" d="M186.44,277.49a33.05,33.05,0,1,1-33.05-33.05,33.05,33.05,0,0,1,33.05,33.05"/><circle class="cls-4" cx="118.58" cy="337.99" r="12.08"/><circle class="cls-4" cx="98.52" cy="373.48" r="12.08"/><circle class="cls-3" cx="446.61" cy="277.49" r="33.05"/><circle class="cls-4" cx="481.42" cy="337.99" r="12.08"/><circle class="cls-4" cx="501.48" cy="373.48" r="12.08"/><path class="cls-3" d="M542.2,502.78C422.68,481.1,340.29,366,340.29,230.84"/><path class="cls-3" d="M62.22,501c119.51-21.69,197.49-135,197.49-270.13"/><path class="cls-3" d="M437.44,47.63a134.47,134.47,0,0,1-268.93,0"/><path class="cls-3" d="M405,47.63a102,102,0,0,1-204,0"/><path class="cls-4" d="M314.56,225a7.06,7.06,0,0,1-.58-14.09l1.12-.1a7.05,7.05,0,1,1,1.28,14.05l-1.22.11Q314.86,225,314.56,225Zm-35.18-.6a5.92,5.92,0,0,1-.84,0l-1.22-.14a7.06,7.06,0,1,1,1.76-14l1.12.13a7.05,7.05,0,0,1-.82,14.06Zm70.9-6.26a7.06,7.06,0,0,1-2-13.81l1.08-.33a7.05,7.05,0,0,1,4.2,13.47l-1.17.36A7,7,0,0,1,350.28,218.15ZM243.9,216.33a7,7,0,0,1-2.29-.38l-1.16-.4a7.06,7.06,0,0,1,4.67-13.32l1.07.37a7.06,7.06,0,0,1-2.29,13.73ZM383.76,203.9a7.05,7.05,0,0,1-3.43-13.22l1-.55a7.06,7.06,0,1,1,7,12.28l-1.07.6A7.11,7.11,0,0,1,383.76,203.9Zm-172.84-3a7.07,7.07,0,0,1-3.63-1l-1-.64a7.05,7.05,0,1,1,7.37-12l1,.58a7.06,7.06,0,0,1-3.65,13.1Zm202.57-18a7.06,7.06,0,0,1-4.66-12.36l.85-.75a7.06,7.06,0,0,1,9.37,10.55l-.92.81A7,7,0,0,1,413.49,182.94Zm-231.56-4a7.07,7.07,0,0,1-4.83-1.91c-.3-.28-.6-.56-.89-.85A7.05,7.05,0,1,1,185.94,166l.81.76A7.06,7.06,0,0,1,181.93,179Zm256.25-22.74A7.06,7.06,0,0,1,432.54,145l.66-.91a7.06,7.06,0,1,1,11.37,8.37l-.73,1A7.06,7.06,0,0,1,438.18,156.24Zm-280-4.79a7.06,7.06,0,0,1-5.8-3l-.69-1a7.06,7.06,0,1,1,11.64-8l.64.93a7.05,7.05,0,0,1-5.79,11.08ZM456.76,125a7,7,0,0,1-2.94-.65,7,7,0,0,1-3.47-9.35l.46-1a7.06,7.06,0,1,1,12.87,5.79l-.51,1.12A7,7,0,0,1,456.76,125Zm-316.1-5.4a7.06,7.06,0,0,1-6.51-4.33c-.15-.38-.31-.75-.46-1.13a7.05,7.05,0,0,1,13.05-5.36l.43,1.05a7,7,0,0,1-6.51,9.77Zm327.67-29.1a7.21,7.21,0,0,1-1.52-.16,7.06,7.06,0,0,1-5.37-8.41l.24-1.11a7.06,7.06,0,0,1,13.8,3c-.09.39-.17.79-.26,1.19A7.07,7.07,0,0,1,468.33,90.46Zm-338-5.76a7.05,7.05,0,0,1-6.93-5.77c-.07-.4-.15-.8-.22-1.21A7.06,7.06,0,1,1,137,75.26c.06.37.13.74.2,1.11a7,7,0,0,1-6.95,8.33Z"/></svg>