<svg id="Layer_1" data-name="Layer 1" xmlns="http://www.w3.org/2000/svg" viewBox="0 0 600 600"><defs><style>.cls-1{fill:#c8e1b9;}.cls-2{fill:none;stroke:#1d1d1b;stroke-miterlimit:10;stroke-width:15px;}</style></defs><title>Symbols-tzolkine-normal</title><rect class="cls-1" x="46.61" y="46.61" width="506.79" height="506.79" rx="97.51"/><rect class="cls-2" x="47.32" y="46.61" width="505.63" height="505.63" rx="97.51"/><line class="cls-2" x1="99.28" y1="152.46" x2="333.6" y2="152.46"/><path class="cls-2" d="M201.15,251.38l38.92-.14c19.6,0,34.57-18.54,34.57-38.15s-14.15-34.51-33.76-34.51l-39.73-.13"/><circle class="cls-2" cx="201.15" cy="214.92" r="36.46"/><circle class="cls-2" cx="200.28" cy="214.6" r="10.73"/><path class="cls-2" d="M239.13,178.56l97.38,6.4s-13.22,66.2-95.51,66.2"/><circle class="cls-2" cx="102.98" cy="173.88" r="21.45"/><path class="cls-2" d="M126.73,153.31s-11.41,82.62,41.37,119.52c39.64,27.72,118.73,14,146.17-16.67,20.31-22.7,21.51-51.09,21.51-74.23"/><path class="cls-2" d="M135.92,222.53s-81.56-4.78-88.46,75.67"/><path class="cls-2" d="M47,421.48c2.3-23,9.49-76.24,55.17-87.35,56.7-13.79,56.34,30.8,148.64,9.19,67.43-23,52.93-77.48,52.93-77.48"/><path class="cls-2" d="M186.64,550.73c48.13-27.45,137.14-82.67,119.16-159.25"/><path class="cls-2" d="M254.9,553.39s165.55-88.88,95.51-221.64"/><path class="cls-2" d="M318.27,552.85s167.5-97.25,80-264.08"/><path class="cls-2" d="M173.85,117.38s57.61-26,98.91-70.23"/><path class="cls-2" d="M250.06,117.81s43.82-26.65,78.88-69.89"/><path class="cls-2" d="M313.84,117.27s43.94-24.84,77.31-70.35"/><path class="cls-2" d="M398.84,233.49S515.49,196.28,527.07,79.62"/><path class="cls-2" d="M380.94,552.08s140.47-87.57,73.25-246.3"/><path class="cls-2" d="M442.24,552.85s118.76-86.58,70.5-213.7"/></svg>