<svg id="Layer_1" data-name="Layer 1" xmlns="http://www.w3.org/2000/svg" viewBox="0 0 400 400"><defs><style>.cls-1{fill:#ef7b79;}.cls-2{fill:none;stroke:#1d1d1b;stroke-miterlimit:10;stroke-width:15px;}</style></defs><title>Symbols-tzolkine-normal-tonesontop [Recovered]</title><circle class="cls-1" cx="200.52" cy="200.48" r="191.66"/><circle class="cls-2" cx="200.52" cy="200.48" r="191.66"/><path class="cls-2" d="M392,200.48s-23.15-19.64-58.34-19.64-70.37,43-130.31,43c-63.86,0-89.92-41.7-134.23-41.7-28.67,0-60.43,18.34-60.43,18.34"/><path class="cls-2" d="M384.11,155.91a98.55,98.55,0,0,0-50.41-14.16c-35.18,0-70.37,43-130.31,43-63.86,0-89.92-41.7-134.23-41.7-21,0-43.74,9.87-54.34,15.13"/><path class="cls-2" d="M370,111.07A97.05,97.05,0,0,0,333.7,104c-35.18,0-70.37,43-130.31,43-63.86,0-89.92-41.7-134.23-41.7-13.77,0-28.25,4.22-39.58,8.62"/></svg>